<svg xmlns="http://www.w3.org/2000/svg" width="1200" height="750" viewBox="0 0 1200 750" role="img" aria-label="QUACC child care center preview">
  <rect width="1200" height="750" fill="#eef8f5"/>
  <circle cx="600" cy="350" r="150" fill="#62bda5"/>
  <circle cx="600" cy="350" r="116" fill="#ffffff" opacity="0.2"/>
  <path d="M600 455s-103-58-103-137c0-40 27-69 65-69 23 0 38 11 48 25 10-14 25-25 48-25 38 0 65 29 65 69 0 79-123 137-123 137z" fill="none" stroke="#ffffff" stroke-width="24" stroke-linecap="round" stroke-linejoin="round"/>
  <circle cx="560" cy="333" r="19" fill="#ffffff"/>
  <circle cx="650" cy="333" r="19" fill="#ffffff"/>
  <path d="M538 399c19-21 44-32 73-32 28 0 53 11 72 32" fill="none" stroke="#ffffff" stroke-width="22" stroke-linecap="round"/>
  <text x="600" y="590" text-anchor="middle" fill="#111111" font-family="Arial, sans-serif" font-size="48" font-weight="700">QUACC</text>
  <text x="600" y="638" text-anchor="middle" fill="#4c8f7f" font-family="Arial, sans-serif" font-size="24" font-weight="700" letter-spacing="3">CHILD CARE SYSTEM</text>
</svg>
